<mxfile host="app.diagrams.net" agent="Mozilla/5.0 (Windows NT 10.0; Win64; x64) AppleWebKit/537.36 (KHTML, like Gecko) Chrome/126.0.0.0 YaBrowser/24.7.0.0 Safari/537.36" version="24.7.7">
  <diagram name="Page-1" id="2a216829-ef6e-dabb-86c1-c78162f3ba2b">
    <mxGraphModel dx="1500" dy="947" grid="1" gridSize="10" guides="1" tooltips="1" connect="1" arrows="1" fold="1" page="1" pageScale="1" pageWidth="850" pageHeight="1100" background="none" math="0" shadow="0">
      <root>
        <mxCell id="0" />
        <mxCell id="1" parent="0" />
        <mxCell id="gV-4NUJgDktABd9A9ryl-23" value="" style="shape=process;whiteSpace=wrap;html=1;backgroundOutline=1;" vertex="1" parent="1">
          <mxGeometry x="160" y="570" width="1780" height="210" as="geometry" />
        </mxCell>
        <mxCell id="gV-4NUJgDktABd9A9ryl-22" value="" style="shape=process;whiteSpace=wrap;html=1;backgroundOutline=1;" vertex="1" parent="1">
          <mxGeometry x="160" y="360" width="1780" height="210" as="geometry" />
        </mxCell>
        <mxCell id="gV-4NUJgDktABd9A9ryl-21" value="" style="shape=process;whiteSpace=wrap;html=1;backgroundOutline=1;" vertex="1" parent="1">
          <mxGeometry x="160" y="150" width="1780" height="210" as="geometry" />
        </mxCell>
        <mxCell id="7a84cebc1def654-1" value="Начало ремонта" style="shape=mxgraph.bpmn.shape;html=1;verticalLabelPosition=bottom;labelBackgroundColor=#ffffff;verticalAlign=top;perimeter=ellipsePerimeter;outline=standard;symbol=general;" parent="1" vertex="1">
          <mxGeometry x="360" y="275" width="50" height="50" as="geometry" />
        </mxCell>
        <mxCell id="7a84cebc1def654-2" value="Составления списка желаний и дизайнерских идей&amp;nbsp;" style="shape=ext;rounded=1;html=1;whiteSpace=wrap;" parent="1" vertex="1">
          <mxGeometry x="520" y="260" width="120" height="80" as="geometry" />
        </mxCell>
        <mxCell id="gV-4NUJgDktABd9A9ryl-8" style="edgeStyle=orthogonalEdgeStyle;rounded=0;orthogonalLoop=1;jettySize=auto;html=1;" edge="1" parent="1" source="7a84cebc1def654-3" target="gV-4NUJgDktABd9A9ryl-3">
          <mxGeometry relative="1" as="geometry" />
        </mxCell>
        <mxCell id="7a84cebc1def654-3" value="Согласование с членами семьи" style="shape=ext;rounded=1;html=1;whiteSpace=wrap;" parent="1" vertex="1">
          <mxGeometry x="850" y="260" width="120" height="80" as="geometry" />
        </mxCell>
        <mxCell id="gV-4NUJgDktABd9A9ryl-4" value="" style="edgeStyle=orthogonalEdgeStyle;rounded=0;orthogonalLoop=1;jettySize=auto;html=1;dashed=1;" edge="1" parent="1" source="7a84cebc1def654-4" target="7a84cebc1def654-2">
          <mxGeometry relative="1" as="geometry" />
        </mxCell>
        <mxCell id="gV-4NUJgDktABd9A9ryl-58" style="edgeStyle=orthogonalEdgeStyle;rounded=0;orthogonalLoop=1;jettySize=auto;html=1;dashed=1;" edge="1" parent="1" source="7a84cebc1def654-4" target="gV-4NUJgDktABd9A9ryl-55">
          <mxGeometry relative="1" as="geometry" />
        </mxCell>
        <mxCell id="7a84cebc1def654-4" value="" style="shape=message;whiteSpace=wrap;html=1;" parent="1" vertex="1">
          <mxGeometry x="560" y="180" width="40" height="30" as="geometry" />
        </mxCell>
        <mxCell id="7a84cebc1def654-26" value="" style="shape=mxgraph.bpmn.shape;html=1;verticalLabelPosition=bottom;labelBackgroundColor=#ffffff;verticalAlign=top;perimeter=ellipsePerimeter;outline=end;symbol=general;" parent="1" vertex="1">
          <mxGeometry x="1690" y="245.00000000000006" width="50" height="50" as="geometry" />
        </mxCell>
        <mxCell id="7a84cebc1def654-36" style="edgeStyle=orthogonalEdgeStyle;rounded=0;html=1;jettySize=auto;orthogonalLoop=1;" parent="1" source="7a84cebc1def654-1" target="7a84cebc1def654-2" edge="1">
          <mxGeometry relative="1" as="geometry" />
        </mxCell>
        <mxCell id="7a84cebc1def654-39" style="edgeStyle=orthogonalEdgeStyle;rounded=0;html=1;jettySize=auto;orthogonalLoop=1;" parent="1" source="gV-4NUJgDktABd9A9ryl-2" target="7a84cebc1def654-3" edge="1">
          <mxGeometry relative="1" as="geometry" />
        </mxCell>
        <mxCell id="gV-4NUJgDktABd9A9ryl-1" value="&lt;h1 style=&quot;margin-top: 0px;&quot;&gt;Планирование ремонта&lt;/h1&gt;&lt;div&gt;В рамках семейного бюджета&amp;nbsp;&lt;br&gt;Исходя из пословицы: Ремонт нельзя закончить, его можно только приостановить.&lt;/div&gt;&lt;p&gt;&lt;br&gt;&lt;/p&gt;" style="text;html=1;whiteSpace=wrap;overflow=hidden;rounded=0;" vertex="1" parent="1">
          <mxGeometry x="60" y="20" width="380" height="120" as="geometry" />
        </mxCell>
        <mxCell id="gV-4NUJgDktABd9A9ryl-11" value="" style="edgeStyle=orthogonalEdgeStyle;rounded=0;orthogonalLoop=1;jettySize=auto;html=1;" edge="1" parent="1" source="gV-4NUJgDktABd9A9ryl-3" target="gV-4NUJgDktABd9A9ryl-10">
          <mxGeometry relative="1" as="geometry" />
        </mxCell>
        <mxCell id="gV-4NUJgDktABd9A9ryl-3" value="Просчёт бюджета" style="shape=ext;rounded=1;html=1;whiteSpace=wrap;" vertex="1" parent="1">
          <mxGeometry x="850" y="400" width="120" height="80" as="geometry" />
        </mxCell>
        <mxCell id="gV-4NUJgDktABd9A9ryl-5" value="План ремонта&lt;div&gt;&lt;br&gt;&lt;/div&gt;" style="text;html=1;align=center;verticalAlign=middle;whiteSpace=wrap;rounded=0;" vertex="1" parent="1">
          <mxGeometry x="530" y="160" width="110" height="30" as="geometry" />
        </mxCell>
        <mxCell id="gV-4NUJgDktABd9A9ryl-7" value="" style="edgeStyle=orthogonalEdgeStyle;rounded=0;html=1;jettySize=auto;orthogonalLoop=1;" edge="1" parent="1" source="7a84cebc1def654-2" target="gV-4NUJgDktABd9A9ryl-2">
          <mxGeometry relative="1" as="geometry">
            <mxPoint x="480" y="290" as="sourcePoint" />
            <mxPoint x="700" y="290" as="targetPoint" />
          </mxGeometry>
        </mxCell>
        <mxCell id="gV-4NUJgDktABd9A9ryl-2" value="Выбор приоритета" style="shape=ext;rounded=1;html=1;whiteSpace=wrap;" vertex="1" parent="1">
          <mxGeometry x="680" y="260" width="120" height="80" as="geometry" />
        </mxCell>
        <mxCell id="gV-4NUJgDktABd9A9ryl-13" value="" style="edgeStyle=orthogonalEdgeStyle;rounded=0;orthogonalLoop=1;jettySize=auto;html=1;" edge="1" parent="1" source="gV-4NUJgDktABd9A9ryl-16" target="gV-4NUJgDktABd9A9ryl-12">
          <mxGeometry relative="1" as="geometry" />
        </mxCell>
        <mxCell id="gV-4NUJgDktABd9A9ryl-10" value="деньги есть" style="rhombus;whiteSpace=wrap;html=1;" vertex="1" parent="1">
          <mxGeometry x="1010" y="400" width="80" height="80" as="geometry" />
        </mxCell>
        <mxCell id="gV-4NUJgDktABd9A9ryl-53" style="edgeStyle=orthogonalEdgeStyle;rounded=0;orthogonalLoop=1;jettySize=auto;html=1;entryX=0.5;entryY=0;entryDx=0;entryDy=0;" edge="1" parent="1" source="gV-4NUJgDktABd9A9ryl-12" target="gV-4NUJgDktABd9A9ryl-45">
          <mxGeometry relative="1" as="geometry">
            <Array as="points">
              <mxPoint x="1320" y="270" />
              <mxPoint x="1320" y="380" />
              <mxPoint x="1425" y="380" />
            </Array>
          </mxGeometry>
        </mxCell>
        <mxCell id="gV-4NUJgDktABd9A9ryl-12" value="Поиск подрядчика" style="shape=ext;rounded=1;html=1;whiteSpace=wrap;" vertex="1" parent="1">
          <mxGeometry x="1170" y="230" width="120" height="80" as="geometry" />
        </mxCell>
        <mxCell id="gV-4NUJgDktABd9A9ryl-52" style="edgeStyle=orthogonalEdgeStyle;rounded=0;orthogonalLoop=1;jettySize=auto;html=1;entryX=0;entryY=0.5;entryDx=0;entryDy=0;" edge="1" parent="1" source="gV-4NUJgDktABd9A9ryl-14" target="gV-4NUJgDktABd9A9ryl-45">
          <mxGeometry relative="1" as="geometry" />
        </mxCell>
        <mxCell id="gV-4NUJgDktABd9A9ryl-14" value="Закупка материалов" style="shape=ext;rounded=1;html=1;whiteSpace=wrap;" vertex="1" parent="1">
          <mxGeometry x="1200" y="455" width="120" height="80" as="geometry" />
        </mxCell>
        <mxCell id="gV-4NUJgDktABd9A9ryl-15" value="" style="edgeStyle=orthogonalEdgeStyle;rounded=0;orthogonalLoop=1;jettySize=auto;html=1;" edge="1" parent="1" source="gV-4NUJgDktABd9A9ryl-10" target="gV-4NUJgDktABd9A9ryl-16">
          <mxGeometry relative="1" as="geometry">
            <mxPoint x="1090" y="440" as="sourcePoint" />
            <mxPoint x="1215" y="440" as="targetPoint" />
          </mxGeometry>
        </mxCell>
        <mxCell id="gV-4NUJgDktABd9A9ryl-16" value="" style="rhombus;whiteSpace=wrap;html=1;" vertex="1" parent="1">
          <mxGeometry x="1150" y="425" width="30" height="30" as="geometry" />
        </mxCell>
        <mxCell id="gV-4NUJgDktABd9A9ryl-17" style="edgeStyle=orthogonalEdgeStyle;rounded=0;orthogonalLoop=1;jettySize=auto;html=1;entryX=0.003;entryY=0.437;entryDx=0;entryDy=0;entryPerimeter=0;" edge="1" parent="1" source="gV-4NUJgDktABd9A9ryl-16" target="gV-4NUJgDktABd9A9ryl-14">
          <mxGeometry relative="1" as="geometry">
            <Array as="points">
              <mxPoint x="1165" y="490" />
            </Array>
          </mxGeometry>
        </mxCell>
        <mxCell id="gV-4NUJgDktABd9A9ryl-18" value="" style="endArrow=none;html=1;rounded=0;entryX=0.5;entryY=0;entryDx=0;entryDy=0;exitX=0.5;exitY=1;exitDx=0;exitDy=0;" edge="1" parent="1" source="gV-4NUJgDktABd9A9ryl-16" target="gV-4NUJgDktABd9A9ryl-16">
          <mxGeometry width="50" height="50" relative="1" as="geometry">
            <mxPoint x="1130" y="550" as="sourcePoint" />
            <mxPoint x="1180" y="500" as="targetPoint" />
          </mxGeometry>
        </mxCell>
        <mxCell id="gV-4NUJgDktABd9A9ryl-19" value="" style="endArrow=none;html=1;rounded=0;entryX=0;entryY=0.5;entryDx=0;entryDy=0;exitX=1;exitY=0.5;exitDx=0;exitDy=0;" edge="1" parent="1" source="gV-4NUJgDktABd9A9ryl-16" target="gV-4NUJgDktABd9A9ryl-16">
          <mxGeometry width="50" height="50" relative="1" as="geometry">
            <mxPoint x="1130" y="510" as="sourcePoint" />
            <mxPoint x="1180" y="460" as="targetPoint" />
          </mxGeometry>
        </mxCell>
        <mxCell id="gV-4NUJgDktABd9A9ryl-25" value="Мама" style="text;html=1;align=center;verticalAlign=middle;whiteSpace=wrap;rounded=0;" vertex="1" parent="1">
          <mxGeometry x="210" y="440" width="60" height="30" as="geometry" />
        </mxCell>
        <mxCell id="gV-4NUJgDktABd9A9ryl-28" value="Папа" style="text;html=1;align=center;verticalAlign=middle;whiteSpace=wrap;rounded=0;" vertex="1" parent="1">
          <mxGeometry x="200" y="230" width="60" height="30" as="geometry" />
        </mxCell>
        <mxCell id="gV-4NUJgDktABd9A9ryl-29" value="Подрядчик" style="text;html=1;align=center;verticalAlign=middle;whiteSpace=wrap;rounded=0;" vertex="1" parent="1">
          <mxGeometry x="220" y="650" width="60" height="30" as="geometry" />
        </mxCell>
        <mxCell id="gV-4NUJgDktABd9A9ryl-36" value="" style="edgeStyle=orthogonalEdgeStyle;rounded=0;orthogonalLoop=1;jettySize=auto;html=1;" edge="1" parent="1" source="gV-4NUJgDktABd9A9ryl-31" target="gV-4NUJgDktABd9A9ryl-33">
          <mxGeometry relative="1" as="geometry" />
        </mxCell>
        <mxCell id="gV-4NUJgDktABd9A9ryl-31" value="Проверка материалов" style="shape=ext;rounded=1;html=1;whiteSpace=wrap;" vertex="1" parent="1">
          <mxGeometry x="1030" y="625" width="120" height="80" as="geometry" />
        </mxCell>
        <mxCell id="gV-4NUJgDktABd9A9ryl-35" value="" style="edgeStyle=orthogonalEdgeStyle;rounded=0;orthogonalLoop=1;jettySize=auto;html=1;" edge="1" parent="1" source="gV-4NUJgDktABd9A9ryl-32" target="gV-4NUJgDktABd9A9ryl-31">
          <mxGeometry relative="1" as="geometry" />
        </mxCell>
        <mxCell id="gV-4NUJgDktABd9A9ryl-32" value="Согласование цен и работ" style="shape=ext;rounded=1;html=1;whiteSpace=wrap;" vertex="1" parent="1">
          <mxGeometry x="855" y="625" width="120" height="80" as="geometry" />
        </mxCell>
        <mxCell id="gV-4NUJgDktABd9A9ryl-38" value="" style="edgeStyle=orthogonalEdgeStyle;rounded=0;orthogonalLoop=1;jettySize=auto;html=1;" edge="1" parent="1" source="gV-4NUJgDktABd9A9ryl-33" target="gV-4NUJgDktABd9A9ryl-34">
          <mxGeometry relative="1" as="geometry" />
        </mxCell>
        <mxCell id="gV-4NUJgDktABd9A9ryl-33" value="Выполнение работ" style="shape=ext;rounded=1;html=1;whiteSpace=wrap;" vertex="1" parent="1">
          <mxGeometry x="1190" y="625" width="120" height="80" as="geometry" />
        </mxCell>
        <mxCell id="gV-4NUJgDktABd9A9ryl-57" style="edgeStyle=orthogonalEdgeStyle;rounded=0;orthogonalLoop=1;jettySize=auto;html=1;exitX=1;exitY=0.5;exitDx=0;exitDy=0;" edge="1" parent="1" source="gV-4NUJgDktABd9A9ryl-34" target="gV-4NUJgDktABd9A9ryl-55">
          <mxGeometry relative="1" as="geometry">
            <Array as="points">
              <mxPoint x="1500" y="665" />
              <mxPoint x="1500" y="468" />
              <mxPoint x="1470" y="468" />
            </Array>
          </mxGeometry>
        </mxCell>
        <mxCell id="gV-4NUJgDktABd9A9ryl-34" value="Сдача работы" style="shape=ext;rounded=1;html=1;whiteSpace=wrap;" vertex="1" parent="1">
          <mxGeometry x="1360" y="625" width="120" height="80" as="geometry" />
        </mxCell>
        <mxCell id="gV-4NUJgDktABd9A9ryl-54" style="edgeStyle=orthogonalEdgeStyle;rounded=0;orthogonalLoop=1;jettySize=auto;html=1;entryX=0.5;entryY=0;entryDx=0;entryDy=0;" edge="1" parent="1" source="gV-4NUJgDktABd9A9ryl-45" target="gV-4NUJgDktABd9A9ryl-32">
          <mxGeometry relative="1" as="geometry">
            <Array as="points">
              <mxPoint x="1425" y="580" />
              <mxPoint x="915" y="580" />
            </Array>
          </mxGeometry>
        </mxCell>
        <mxCell id="gV-4NUJgDktABd9A9ryl-45" value="" style="rhombus;whiteSpace=wrap;html=1;" vertex="1" parent="1">
          <mxGeometry x="1410" y="400" width="30" height="30" as="geometry" />
        </mxCell>
        <mxCell id="gV-4NUJgDktABd9A9ryl-46" value="" style="endArrow=none;html=1;rounded=0;entryX=0.5;entryY=0;entryDx=0;entryDy=0;exitX=0.5;exitY=1;exitDx=0;exitDy=0;elbow=horizontal;" edge="1" parent="1" source="gV-4NUJgDktABd9A9ryl-45" target="gV-4NUJgDktABd9A9ryl-45">
          <mxGeometry width="50" height="50" relative="1" as="geometry">
            <mxPoint x="1150" y="570" as="sourcePoint" />
            <mxPoint x="1200" y="520" as="targetPoint" />
          </mxGeometry>
        </mxCell>
        <mxCell id="gV-4NUJgDktABd9A9ryl-47" value="" style="endArrow=none;html=1;rounded=0;entryX=0;entryY=0.5;entryDx=0;entryDy=0;exitX=1;exitY=0.5;exitDx=0;exitDy=0;" edge="1" parent="1" source="gV-4NUJgDktABd9A9ryl-45" target="gV-4NUJgDktABd9A9ryl-45">
          <mxGeometry width="50" height="50" relative="1" as="geometry">
            <mxPoint x="1150" y="530" as="sourcePoint" />
            <mxPoint x="1200" y="480" as="targetPoint" />
          </mxGeometry>
        </mxCell>
        <mxCell id="gV-4NUJgDktABd9A9ryl-56" value="" style="edgeStyle=orthogonalEdgeStyle;rounded=0;orthogonalLoop=1;jettySize=auto;html=1;" edge="1" parent="1" source="gV-4NUJgDktABd9A9ryl-63" target="7a84cebc1def654-26">
          <mxGeometry relative="1" as="geometry" />
        </mxCell>
        <mxCell id="gV-4NUJgDktABd9A9ryl-65" value="нет" style="edgeLabel;html=1;align=center;verticalAlign=middle;resizable=0;points=[];" vertex="1" connectable="0" parent="gV-4NUJgDktABd9A9ryl-56">
          <mxGeometry x="-0.1269" relative="1" as="geometry">
            <mxPoint as="offset" />
          </mxGeometry>
        </mxCell>
        <mxCell id="gV-4NUJgDktABd9A9ryl-55" value="Принятие работ" style="shape=ext;rounded=1;html=1;whiteSpace=wrap;" vertex="1" parent="1">
          <mxGeometry x="1370" y="230" width="120" height="80" as="geometry" />
        </mxCell>
        <mxCell id="gV-4NUJgDktABd9A9ryl-59" value="Ремонт закочен" style="text;html=1;align=center;verticalAlign=middle;whiteSpace=wrap;rounded=0;" vertex="1" parent="1">
          <mxGeometry x="1685" y="310" width="60" height="30" as="geometry" />
        </mxCell>
        <mxCell id="gV-4NUJgDktABd9A9ryl-61" style="edgeStyle=orthogonalEdgeStyle;rounded=0;orthogonalLoop=1;jettySize=auto;html=1;entryX=0.5;entryY=1;entryDx=0;entryDy=0;" edge="1" parent="1" source="gV-4NUJgDktABd9A9ryl-10" target="gV-4NUJgDktABd9A9ryl-3">
          <mxGeometry relative="1" as="geometry">
            <Array as="points">
              <mxPoint x="1050" y="510" />
              <mxPoint x="910" y="510" />
            </Array>
          </mxGeometry>
        </mxCell>
        <mxCell id="gV-4NUJgDktABd9A9ryl-62" value="нет" style="edgeLabel;html=1;align=center;verticalAlign=middle;resizable=0;points=[];" vertex="1" connectable="0" parent="gV-4NUJgDktABd9A9ryl-61">
          <mxGeometry x="0.1925" y="6" relative="1" as="geometry">
            <mxPoint y="-1" as="offset" />
          </mxGeometry>
        </mxCell>
        <mxCell id="gV-4NUJgDktABd9A9ryl-64" value="" style="edgeStyle=orthogonalEdgeStyle;rounded=0;orthogonalLoop=1;jettySize=auto;html=1;" edge="1" parent="1" source="gV-4NUJgDktABd9A9ryl-55" target="gV-4NUJgDktABd9A9ryl-63">
          <mxGeometry relative="1" as="geometry">
            <mxPoint x="1490" y="270" as="sourcePoint" />
            <mxPoint x="1690" y="270" as="targetPoint" />
          </mxGeometry>
        </mxCell>
        <mxCell id="gV-4NUJgDktABd9A9ryl-63" value="еще&amp;nbsp; остались деньги?" style="rhombus;whiteSpace=wrap;html=1;" vertex="1" parent="1">
          <mxGeometry x="1530" y="230" width="80" height="80" as="geometry" />
        </mxCell>
        <mxCell id="gV-4NUJgDktABd9A9ryl-66" style="edgeStyle=orthogonalEdgeStyle;rounded=0;orthogonalLoop=1;jettySize=auto;html=1;entryX=0.89;entryY=0.005;entryDx=0;entryDy=0;entryPerimeter=0;" edge="1" parent="1" source="gV-4NUJgDktABd9A9ryl-63" target="7a84cebc1def654-2">
          <mxGeometry relative="1" as="geometry">
            <Array as="points">
              <mxPoint x="1570" y="210" />
              <mxPoint x="627" y="210" />
            </Array>
          </mxGeometry>
        </mxCell>
        <mxCell id="gV-4NUJgDktABd9A9ryl-69" style="edgeStyle=orthogonalEdgeStyle;rounded=0;orthogonalLoop=1;jettySize=auto;html=1;dashed=1;" edge="1" parent="1" source="gV-4NUJgDktABd9A9ryl-68" target="gV-4NUJgDktABd9A9ryl-3">
          <mxGeometry relative="1" as="geometry" />
        </mxCell>
        <mxCell id="gV-4NUJgDktABd9A9ryl-68" value="" style="shape=message;whiteSpace=wrap;html=1;" vertex="1" parent="1">
          <mxGeometry x="710" y="425" width="40" height="30" as="geometry" />
        </mxCell>
        <mxCell id="gV-4NUJgDktABd9A9ryl-70" value="Text" style="text;html=1;align=center;verticalAlign=middle;whiteSpace=wrap;rounded=0;" vertex="1" parent="1">
          <mxGeometry x="830" y="420" width="60" height="30" as="geometry" />
        </mxCell>
        <mxCell id="gV-4NUJgDktABd9A9ryl-71" value="Бюджет ремонта" style="text;html=1;align=center;verticalAlign=middle;whiteSpace=wrap;rounded=0;" vertex="1" parent="1">
          <mxGeometry x="700" y="470" width="60" height="30" as="geometry" />
        </mxCell>
      </root>
    </mxGraphModel>
  </diagram>
</mxfile>
